Coordinates
version=1
nRows=38
nColumns=12
inDegrees=yes

Units are S.I. units (second, meters, Newtons, ...)
Angles are in degrees

endheader
time	SC_y	SC_z	SC_x	AC_y	AC_z	AC_x	GH_y	GH_z	GH_yy	EL_x	PS_y
       0.0              -22.12          14.19          58.23          37.98         -11.12          1.714         -81.88          51.14          141.2          74.22          68.69
  0.002598              -22.12          14.19          58.23          37.98         -11.12          1.711         -81.86          51.14          141.1          74.22           68.7
  0.005196              -22.12          14.19          58.23          37.98         -11.12          1.709         -81.84          51.15          141.1          74.22           68.7
  0.007794              -22.12          14.19          58.24          37.98         -11.12          1.706         -81.82          51.15          141.0          74.22          68.71
   0.01039              -22.12          14.19          58.24          37.98         -11.12          1.703         -81.79          51.15          141.0          74.23          68.72
   0.01299              -22.12          14.18          58.25          37.98         -11.12            1.7         -81.77          51.16          140.9          74.23          68.73
   0.01559              -22.12          14.18          58.25          37.99         -11.12          1.697         -81.74          51.16          140.9          74.23          68.74
   0.01819              -22.12          14.18          58.25          37.99         -11.12          1.694         -81.71          51.17          140.8          74.23          68.75
   0.02078              -22.12          14.18          58.26          37.99         -11.13           1.69         -81.68          51.17          140.7          74.23          68.76
   0.02338              -22.13          14.18          58.26          37.99         -11.13          1.686         -81.65          51.18          140.7          74.23          68.77
   0.02598              -22.13          14.17          58.27          37.99         -11.13          1.682         -81.62          51.18          140.6          74.24          68.79
   0.02858              -22.13          14.17          58.28           38.0         -11.13          1.678         -81.58          51.19          140.5          74.24           68.8
   0.03118              -22.13          14.17          58.28           38.0         -11.13          1.673         -81.54          51.19          140.4          74.24          68.82
   0.03377              -22.13          14.17          58.29           38.0         -11.14          1.668         -81.49           51.2          140.3          74.24          68.83
   0.03637              -22.14          14.16           58.3          38.01         -11.14          1.662         -81.45          51.21          140.2          74.24          68.85
   0.03897              -22.14          14.16           58.3          38.01         -11.14          1.656          -81.4          51.22          140.1          74.25          68.87
   0.04157              -22.14          14.16          58.31          38.01         -11.14          1.649         -81.34          51.23          140.0          74.25          68.89
   0.04417              -22.14          14.15          58.32          38.02         -11.15          1.642         -81.28          51.24          139.8          74.25          68.91
   0.04677              -22.15          14.15          58.33          38.02         -11.15          1.634         -81.21          51.25          139.7          74.26          68.94
   0.04936              -22.15          14.14          58.34          38.03         -11.15          1.625         -81.14          51.26          139.5          74.26          68.97
   0.05196              -22.16          14.14          58.36          38.03         -11.16          1.615         -81.06          51.27          139.3          74.26           69.0
   0.05456              -22.16          14.13          58.37          38.04         -11.16          1.605         -80.98          51.29          139.1          74.27          69.03
   0.05716              -22.16          14.12          58.39          38.04         -11.17          1.593         -80.88           51.3          138.9          74.27          69.07
   0.05976              -22.17          14.12           58.4          38.05         -11.17           1.58         -80.77          51.32          138.7          74.28          69.11
   0.06235              -22.18          14.11          58.42          38.06         -11.18          1.566         -80.65          51.34          138.4          74.29          69.15
   0.06495              -22.18           14.1          58.44          38.07         -11.18           1.55         -80.52          51.36          138.1          74.29           69.2
   0.06755              -22.19          14.09          58.47          38.08         -11.19          1.532         -80.37          51.39          137.7           74.3          69.26
   0.07015               -22.2          14.08          58.49          38.09          -11.2          1.512         -80.21          51.41          137.4          74.31          69.32
   0.07275              -22.21          14.07          58.52           38.1         -11.21          1.489         -80.02          51.45          136.9          74.32          69.39
   0.07534              -22.22          14.05          58.56          38.11         -11.22          1.463          -79.8          51.48          136.4          74.33          69.47
   0.07794              -22.23          14.04           58.6          38.13         -11.23          1.434         -79.56          51.52          135.9          74.34          69.56
   0.08054              -22.24          14.02          58.64          38.15         -11.24            1.4         -79.28          51.57          135.2          74.36          69.67
   0.08314              -22.26          13.99          58.69          38.17         -11.26          1.361         -78.95          51.62          134.5          74.38          69.79
   0.08574              -22.28          13.97          58.75          38.19         -11.28          1.316         -78.58          51.68          133.6           74.4          69.93
   0.08833               -22.3          13.94          58.82          38.22          -11.3          1.262         -78.13          51.76          132.6          74.42           70.1
   0.09093              -22.32           13.9          58.91          38.26         -11.33            1.2         -77.62          51.84          131.5          74.45           70.3
   0.09353              -22.36          13.86           59.0           38.3         -11.36          1.125          -77.0          51.94          130.0          74.48          70.53
   0.09613              -22.39          13.81          59.12          38.35         -11.39          1.036         -76.26          52.07          128.4          74.52          70.81
